<?xml version="1.0" encoding="UTF-8"?><svg id="uuid-599c9dfc-b1aa-4cd6-9ffa-97ebc8418e00" xmlns="http://www.w3.org/2000/svg" viewBox="0 0 347.2973545 90.0458268"><defs><style>.uuid-68c3fd46-9e28-4fdb-8bae-0a6e69dd65c7{fill:#0071ae;}.uuid-8c1ce578-8639-4ed2-b315-cfb5e4de23b2{fill:#fff;}.uuid-bce6aaae-4d4b-409b-8dcf-d3a46d4cc4d8{fill:#41bcdd;}.uuid-e2521fb6-1cbf-4872-a85b-fa61fa74d148{fill:#f2bf29;}.uuid-b4120f25-4437-4cef-8a2d-5c18092f9f38{fill:#231f20;}</style></defs><g><g><polygon class="uuid-e2521fb6-1cbf-4872-a85b-fa61fa74d148" points="63.5031525 9.5684366 63.6260735 9.5684366 63.6260735 9.5367531 71.9952767 9.5367531 71.9952767 9.5684366 71.9952767 18.7389194 80.2414663 18.7389194 80.2414663 0 63.5031525 0 63.5031525 9.5684366"/><path class="uuid-68c3fd46-9e28-4fdb-8bae-0a6e69dd65c7" d="M5.5673287,29.654888c1.2134702-.0907161,2.0238264,.1809163,2.5922729,.8093242,.5663824,.6289239,1.6991473,1.1671317,1.6206092,2.4264244-.0806022,1.2592927-1.1348289,3.9573329-1.2155343,4.7646096-.0806022,.8093242,.0866912,1.4377321,1.2195592,1.2573318,1.130804-.1789554,3.6423715-1.7945076,5.8314313-1.6171003,2.1869875,.1788522,4.5358069,.2690523,4.9429417,.4499685,.4051781,.1788522,1.864583,0,1.864583,0,0,0,7.4539973-13.3051364,14.8274956-10.8585873,7.0790579,2.3498304,4.9081661,1.5672528,7.9438025,6.0299913,0,0,1.4573408,8.0642413-7.0529473,12.4297618,0,0-5.9139902-.1073319-9.5624464,.5775284,0,0-.9715649,5.75485,8.8348596,4.1372337,9.8043605-1.6181323,9.1572727-2.965561,9.1572727-2.965561,0,0,2.1869916-4.4048412,3.5657943-9.1715148,1.3767386-4.7646096,3.9708692-8.5384627,5.42821-8.9884313,1.4594049-.4500717,4.216907,2.4263212,4.216907,3.5048009,0,1.0808533,.7256259,1.6190611-1.0542268,8.0904551l.2398456,.4499685,17.5264812-6.9248714v-10.063402h-8.2461896V14.7906518h-8.3692085v.0302387h-.1229105V5.124894H0v30.6501854c1.6065735-2.1280622,4.6804985-6.054657,5.5673287-6.1201914Z"/><path class="uuid-bce6aaae-4d4b-409b-8dcf-d3a46d4cc4d8" d="M57.5084569,59.229277c1.0541236,.2690523,2.0277482,1.7073004,8.4295827-5.5729017,.4415112-.5018801,2.1870948-2.3367403,2.3503632,.3587364,.1632684,2.6950639,.971566,10.3380273-9.1573759,15.3727212-.5220048,.2600736-5.025096,2.5155925-9.643053-12.5869412-.1592435-.5165511-.4051781-1.7955396-2.4309654-1.2573318s-19.6954122,8.4503267-25.5268394-6.6523102c-.2861841-.7397648-.6490445-.1809163-.6490445-.1809163,0,0,.080598-1.5263841-4.6990794,1.4382481-.6369738,.3955639,8.3494966,10.6977957-2.35026,21.8430831-.7700035,.8017903-8.6735565,4.5857574-10.2942689-.5382078-1.6185451-5.123862-2.35026-8.9904954,.5684465-9.7096354,2.9167456-.719108,9.1573759-1.9798456,5.9967597-8.5405108-3.1606162-6.560046-4.1321767-7.1003179-4.1321767-7.1003179,0,0-1.1348289,2.4284885-3.4549534,6.2229824-1.1851924,1.9390961-1.9814097,2.6038317-2.5155925,2.7393383v24.5920194H76.4942398V41.3455042c-3.9205058,1.6110112-15.3273116,6.571192-20.120715,11.592263-.4595665,.4812393,.0807054,6.0203934,1.1349321,6.2915097Z"/><path class="uuid-8c1ce578-8639-4ed2-b315-cfb5e4de23b2" d="M58.9677585,40.9810916l-.2398456-.4499685c1.7798526-6.4713939,1.0542268-7.0096017,1.0542268-8.0904551,0-1.0784797-2.7575022-3.9548726-4.216907-3.5048009-1.4573408,.4499685-4.0514714,4.2238217-5.42821,8.9884313-1.3788027,4.7666737-3.5657943,9.1715148-3.5657943,9.1715148,0,0,.6470878,1.3474287-9.1572727,2.965561-9.8064246,1.6176163-8.8348596-4.1372337-8.8348596-4.1372337,3.6484561-.6848604,9.5624464-.5775284,9.5624464-.5775284,8.5102881-4.3655205,7.0529473-12.4297618,7.0529473-12.4297618-3.0356364-4.4627385-.8647446-3.6801609-7.9438025-6.0299913-7.3734983-2.4465492-14.8274956,10.8585873-14.8274956,10.8585873,0,0-1.4594049,.1788522-1.864583,0-.4071348-.1809163-2.7559541-.2711164-4.9429417-.4499685-2.1890598-.1774073-4.7006273,1.4381449-5.8314313,1.6171003-1.1328681,.1804002-1.3001614-.4480077-1.2195592-1.2573318,.0807054-.8072767,1.1349321-3.5053169,1.2155343-4.7646096,.0785381-1.2592927-1.0542268-1.7975005-1.6206092-2.4264244-.5684465-.6284079-1.3788027-.9000403-2.5922729-.8093242-.8868302,.0655344-3.9607552,3.9921292-5.5673287,6.1201914v19.2902341c.5341828-.1355066,1.3304001-.8002422,2.5155925-2.7393383,2.3201245-3.7944939,3.4549534-6.2229824,3.4549534-6.2229824,0,0,.9715605,.5402719,4.1321767,7.1003179,3.1606162,6.5606652-3.080014,7.8214028-5.9967597,8.5405108-2.9187065,.71914-2.1869916,4.5857734-.5684465,9.7096354,1.6207124,5.1239652,9.5242654,1.3399981,10.2942689,.5382078,10.6997566-11.1452874,1.7132862-21.4475193,2.35026-21.8430831,4.7796773-2.9646322,4.6990794-1.4382481,4.6990794-1.4382481,0,0,.3628603-.5588485,.6490445,.1809163,5.8314272,15.1026369,23.5010521,7.190518,25.5268394,6.6523102s2.2717219,.7407807,2.4309654,1.2573318c4.617957,15.1025337,9.1210482,12.8470148,9.643053,12.5869412,10.1289419-5.0346939,9.3206443-12.6776573,9.1573759-15.3727212-.1632684-2.6954767-1.908852-.8606164-2.3503632-.3587364-6.4018346,7.2802021-7.3754592,5.841954-8.4295827,5.5729017-1.0542268-.2711164-1.5944986-5.8102704-1.1349321-6.2915097,4.7934034-5.021071,16.2002093-9.9812518,20.120715-11.592263v-7.289284l-17.5264812,6.9248714Z"/><path class="uuid-8c1ce578-8639-4ed2-b315-cfb5e4de23b2" d="M20.4759425,13.652314s-2.4313782,2.3231174-8.6840833,4.6466476c-3.6827242,1.3681727-5.5795067,4.524764-5.2549308,5.963012,.3225119,1.4381449,2.0257912,4.2238217,8.9940043,1.6165842,6.9707971-2.6048638,8.105626-5.3905406,7.9423576-8.1786943-.1632684-2.7882569-.9715605-4.4930804-2.9973478-4.0475496Z"/><path class="uuid-68c3fd46-9e28-4fdb-8bae-0a6e69dd65c7" d="M31.7900713,37.8300733c.3487256,.7554518,1.8705688,.6500807,3.4025259-.2337566,1.5319571-.8853854,2.4893787-2.2183656,2.1427172-2.9737141-.3487256-.7583415-1.8705688-.6535896-3.4044868,.2328278-1.5299963,.8853854-2.4894819,2.2163015-2.1407563,2.974643Z"/></g><rect class="uuid-b4120f25-4437-4cef-8a2d-5c18092f9f38" y="79.6573329" width="76.4942398" height="10.388494"/><g><path class="uuid-8c1ce578-8639-4ed2-b315-cfb5e4de23b2" d="M17.4184483,87.4427083c.4833984,.2973633,1.1894531,.5454102,1.9326172,.5454102,1.1030273,0,1.7470703-.5825195,1.7470703-1.4248047,0-.7807617-.4458008-1.2270508-1.5732422-1.6606445-1.3632812-.4829102-2.2055664-1.1894531-2.2055664-2.3662109,0-1.3012695,1.078125-2.2675781,2.7011719-2.2675781,.8549805,0,1.4741211,.1982422,1.8461914,.4091797l-.2973633,.8793945c-.2729492-.1484375-.8305664-.3964844-1.5859375-.3964844-1.1401367,0-1.5737305,.6816406-1.5737305,1.2514648,0,.7807617,.5078125,1.1645508,1.6601562,1.6108398,1.4125977,.5449219,2.1313477,1.2265625,2.1313477,2.453125,0,1.2885742-.9541016,2.4160156-2.9243164,2.4160156-.8051758,0-1.6850586-.2475586-2.1308594-.5449219l.2724609-.9047852Z"/><path class="uuid-8c1ce578-8639-4ed2-b315-cfb5e4de23b2" d="M28.6264561,80.4051107h4.4975586v.9047852h-3.4199219v2.7753906h3.159668v.8920898h-3.159668v3.7788086h-1.0776367v-8.3510742Z"/><path class="uuid-8c1ce578-8639-4ed2-b315-cfb5e4de23b2" d="M39.996085,86.1292318l-.8671875,2.6269531h-1.1152344l2.8374023-8.3510742h1.3012695l2.8496094,8.3510742h-1.1523438l-.8920898-2.6269531h-2.9614258Zm2.7382812-.8422852l-.8178711-2.4038086c-.1855469-.5449219-.3095703-1.0405273-.4335938-1.5239258h-.0244141c-.1240234,.4956055-.2602539,1.003418-.4213867,1.5117188l-.8178711,2.4160156h2.5151367Z"/><path class="uuid-8c1ce578-8639-4ed2-b315-cfb5e4de23b2" d="M55.5771397,88.7561849l-1.0654297-1.8461914c-.434082-.7060547-.706543-1.1645508-.9667969-1.6479492h-.0244141c-.2358398,.4833984-.4711914,.9291992-.9047852,1.6601562l-1.003418,1.8339844h-1.2392578l2.5527344-4.2250977-2.4536133-4.1259766h1.2514648l1.1030273,1.9575195c.3095703,.5454102,.5449219,.9667969,.7680664,1.4125977h.0371094c.2353516-.4956055,.4458008-.8793945,.7558594-1.4125977l1.1396484-1.9575195h1.2392578l-2.5400391,4.0639648,2.6020508,4.2871094h-1.2514648Z"/></g></g><g><path class="uuid-8c1ce578-8639-4ed2-b315-cfb5e4de23b2" d="M91.0478428,43.4812826h-1.9399414v-14.3300781h1.9399414v14.3300781Z"/><path class="uuid-8c1ce578-8639-4ed2-b315-cfb5e4de23b2" d="M96.2724522,29.2161458c.0834961,.043457,.1782227,.1318359,.2851562,.2651367l8.2998047,10.7998047c-.0200195-.1728516-.0332031-.3413086-.0400391-.5048828-.0068359-.1630859-.0097656-.3212891-.0097656-.4750977v-10.1499023h1.699707v14.3300781h-.9799805c-.1533203,0-.2817383-.0263672-.3847656-.0800781-.1035156-.0532227-.2050781-.1430664-.3051758-.2700195l-8.2900391-10.7900391c.0131836,.1669922,.0234375,.3300781,.0302734,.4902344,.0063477,.159668,.0097656,.3066406,.0097656,.4399414v10.2099609h-1.699707v-14.3300781h1c.1728516,0,.3012695,.0219727,.3847656,.0649414Z"/><path class="uuid-8c1ce578-8639-4ed2-b315-cfb5e4de23b2" d="M117.3476475,31.3914388c-.0600586,.0996094-.1235352,.1748047-.1899414,.2246094-.0668945,.050293-.1538086,.0751953-.2602539,.0751953-.1132812,0-.2451172-.0566406-.3950195-.1699219s-.3398438-.2382812-.5698242-.375-.5068359-.2617188-.8300781-.375-.7148438-.1699219-1.1748047-.1699219c-.4335938,0-.8168945,.0581055-1.1503906,.1748047-.3330078,.1166992-.6113281,.2749023-.8349609,.4750977-.2231445,.2001953-.3916016,.4350586-.5048828,.7050781s-.1699219,.5615234-.1699219,.875c0,.3999023,.0981445,.7314453,.2949219,.9951172,.1967773,.2631836,.456543,.4882812,.7802734,.6748047,.3232422,.1865234,.6899414,.3486328,1.0996094,.4848633,.4101562,.1367188,.8300781,.2783203,1.2602539,.425293,.4301758,.1464844,.8500977,.3115234,1.2597656,.4946289,.4101562,.1835938,.7768555,.4150391,1.1000977,.6953125,.3232422,.2797852,.5834961,.6235352,.7802734,1.0297852,.1962891,.4067383,.2949219,.9067383,.2949219,1.5,0,.6269531-.1069336,1.215332-.3203125,1.7651367s-.5249023,1.0283203-.9345703,1.4350586c-.4101562,.4067383-.9135742,.7265625-1.5102539,.9599609s-1.2749023,.3500977-2.0351562,.3500977c-.9267578,0-1.7714844-.168457-2.534668-.5053711-.7636719-.3364258-1.4150391-.7915039-1.9550781-1.3647461l.5600586-.9199219c.0532227-.0732422,.1181641-.1352539,.1948242-.1850586,.0766602-.050293,.1616211-.0751953,.2548828-.0751953,.1401367,0,.300293,.0751953,.4799805,.2250977,.1801758,.1499023,.4052734,.3149414,.675293,.4951172,.2700195,.1796875,.5966797,.3447266,.9799805,.4951172,.3833008,.1499023,.8515625,.2246094,1.4047852,.2246094,.4599609,0,.8701172-.0629883,1.2299805-.1899414,.3603516-.1264648,.6650391-.3046875,.9150391-.534668s.4418945-.5053711,.5751953-.8251953,.199707-.6767578,.199707-1.0698242c0-.4335938-.0981445-.7885742-.2949219-1.0649414-.1967773-.2768555-.4550781-.5083008-.7749023-.6953125-.3198242-.1865234-.6850586-.3447266-1.0952148-.4750977-.409668-.1298828-.8295898-.2631836-1.2597656-.3999023s-.8500977-.2949219-1.2597656-.4750977c-.4101562-.1796875-.7753906-.4130859-1.0952148-.699707s-.5786133-.6450195-.7749023-1.0751953c-.1967773-.4296875-.2949219-.9614258-.2949219-1.5947266,0-.5068359,.0981445-.996582,.2949219-1.4702148,.1962891-.4731445,.4814453-.8930664,.8549805-1.2597656,.3730469-.3666992,.8349609-.6601562,1.3847656-.8803711,.550293-.2197266,1.1816406-.3300781,1.8950195-.3300781,.800293,0,1.5302734,.1269531,2.1899414,.3803711,.6601562,.253418,1.2368164,.6196289,1.7299805,1.1000977l-.4697266,.9199219Z"/><path class="uuid-8c1ce578-8639-4ed2-b315-cfb5e4de23b2" d="M130.367667,29.1512044v1.6298828h-4.6298828v12.7001953h-1.9399414v-12.7001953h-4.6503906v-1.6298828h11.2202148Z"/><path class="uuid-8c1ce578-8639-4ed2-b315-cfb5e4de23b2" d="M134.7075108,43.4812826h-1.9399414v-14.3300781h1.9399414v14.3300781Z"/><path class="uuid-8c1ce578-8639-4ed2-b315-cfb5e4de23b2" d="M148.3071201,29.1512044v1.6298828h-4.6298828v12.7001953h-1.9399414v-12.7001953h-4.6503906v-1.6298828h11.2202148Z"/><path class="uuid-8c1ce578-8639-4ed2-b315-cfb5e4de23b2" d="M155.9169834,41.9412435c.5932617,0,1.1230469-.1000977,1.5898438-.2998047,.4667969-.2001953,.8618164-.4799805,1.1850586-.840332,.3232422-.3598633,.5698242-.7900391,.7402344-1.2900391,.1699219-.5,.2548828-1.0498047,.2548828-1.6499023v-8.7099609h1.9296875v8.7099609c0,.8266602-.1318359,1.59375-.3945312,2.300293-.2636719,.706543-.640625,1.3183594-1.1298828,1.8349609-.4902344,.5166016-1.0888672,.9213867-1.7954102,1.2148438s-1.5,.4399414-2.3798828,.4399414-1.6733398-.1464844-2.3798828-.4399414c-.7070312-.293457-1.3071289-.6982422-1.800293-1.2148438s-.871582-1.128418-1.1347656-1.8349609c-.2636719-.706543-.3950195-1.4736328-.3950195-2.300293v-8.7099609h1.9296875v8.7001953c0,.6000977,.0854492,1.1499023,.2553711,1.6499023s.4165039,.9301758,.7397461,1.2900391,.7202148,.6416016,1.1899414,.8447266c.4702148,.2036133,1.0019531,.3051758,1.5952148,.3051758Z"/><path class="uuid-8c1ce578-8639-4ed2-b315-cfb5e4de23b2" d="M174.7065342,29.1512044v1.6298828h-4.6298828v12.7001953h-1.9404297v-12.7001953h-4.6494141v-1.6298828h11.2197266Z"/><path class="uuid-8c1ce578-8639-4ed2-b315-cfb5e4de23b2" d="M187.8159092,31.0511068c-.0605469,.1137695-.1464844,.1704102-.2597656,.1704102-.0878906,0-.1992188-.0620117-.3369141-.1850586-.1367188-.1235352-.3222656-.2602539-.5566406-.4101562s-.5263672-.2880859-.8779297-.4150391c-.3505859-.1264648-.7841797-.1899414-1.2988281-.1899414s-.9677734,.0732422-1.359375,.2197266c-.3916016,.1469727-.71875,.347168-.9833984,.6000977-.2636719,.253418-.4648438,.546875-.6015625,.8803711-.1376953,.3330078-.2060547,.6831055-.2060547,1.0498047,0,.4799805,.1015625,.8764648,.3056641,1.1899414,.203125,.3134766,.4726562,.5800781,.8066406,.7998047,.3330078,.2202148,.7119141,.4052734,1.1357422,.5551758s.8603516,.2983398,1.3076172,.4448242c.4472656,.1469727,.8828125,.3085938,1.3066406,.4853516s.8027344,.3984375,1.1367188,.6650391c.3330078,.2666016,.6015625,.5947266,.8056641,.9848633s.3056641,.875,.3056641,1.4550781c0,.5932617-.1015625,1.1513672-.3046875,1.6748047-.2041016,.5234375-.4990234,.9785156-.8857422,1.3652344s-.859375,.6914062-1.4199219,.9150391c-.5595703,.2231445-1.2001953,.3349609-1.9199219,.3349609-.9335938,0-1.7363281-.1650391-2.4101562-.4951172-.6728516-.3300781-1.2626953-.7817383-1.7695312-1.3549805l.2802734-.4399414c.0800781-.1000977,.1728516-.1499023,.2792969-.1499023,.0605469,0,.1367188,.0395508,.2304688,.1196289s.2070312,.1787109,.3408203,.2949219c.1328125,.1171875,.2939453,.2436523,.4804688,.3803711s.4042969,.2631836,.6513672,.3798828c.2460938,.1166992,.5302734,.2148438,.8505859,.2949219s.6845703,.1201172,1.0917969,.1201172c.5605469,0,1.0615234-.0849609,1.5019531-.2548828,.4404297-.1704102,.8125-.4018555,1.1162109-.6953125,.3037109-.2929688,.5361328-.6416016,.6962891-1.0449219s.2402344-.8349609,.2402344-1.2949219c0-.5-.1015625-.9116211-.3056641-1.2348633-.203125-.3232422-.4726562-.5932617-.8056641-.8100586-.3339844-.2167969-.7128906-.3984375-1.1367188-.5449219-.4238281-.1469727-.859375-.2900391-1.3066406-.4301758s-.8828125-.2963867-1.3066406-.4702148c-.4248047-.1728516-.8037109-.3950195-1.1367188-.6645508-.3339844-.2700195-.6025391-.6069336-.8066406-1.0102539-.203125-.4033203-.3056641-.9082031-.3056641-1.5151367,0-.4731445,.0908203-.9296875,.2705078-1.3696289,.1806641-.4404297,.4443359-.8286133,.7910156-1.1650391,.3476562-.3369141,.7763672-.6069336,1.2871094-.8100586,.5107422-.2036133,1.0927734-.3051758,1.7480469-.3051758,.7333984,0,1.3925781,.1166992,1.9775391,.3500977,.5839844,.2333984,1.1162109,.5898438,1.5966797,1.0698242l-.2402344,.4599609Z"/><path class="uuid-8c1ce578-8639-4ed2-b315-cfb5e4de23b2" d="M196.6459873,42.7513021c.6796875,0,1.2880859-.1181641,1.8251953-.3549805,.5361328-.2368164,.9912109-.5649414,1.3642578-.9848633,.3740234-.4204102,.6591797-.9150391,.8554688-1.4853516,.1962891-.5698242,.2949219-1.1850586,.2949219-1.8447266v-8.75h1.0205078v8.75c0,.7797852-.1240234,1.5083008-.3701172,2.1850586-.2470703,.6767578-.6015625,1.2666016-1.0654297,1.7700195-.4628906,.503418-1.0263672,.8984375-1.6894531,1.1850586-.6640625,.2861328-1.4091797,.4296875-2.2353516,.4296875-.8271484,0-1.5722656-.1435547-2.2353516-.4296875-.6630859-.2866211-1.2265625-.6816406-1.6894531-1.1850586-.4638672-.503418-.8183594-1.0932617-1.0654297-1.7700195-.2460938-.6767578-.3701172-1.4052734-.3701172-2.1850586v-8.75h1.0302734v8.7397461c0,.6601562,.0986328,1.2753906,.2949219,1.8452148s.4804688,1.0649414,.8496094,1.4848633c.3701172,.4199219,.8242188,.75,1.3603516,.9902344,.5371094,.2397461,1.1455078,.3598633,1.8251953,.3598633Z"/><path class="uuid-8c1ce578-8639-4ed2-b315-cfb5e4de23b2" d="M207.4057529,37.7810872v5.7001953h-1.0195312v-14.1499023h3.6494141c1.6601562,0,2.9121094,.3632812,3.7548828,1.0898438,.84375,.7265625,1.265625,1.7636719,1.265625,3.1098633,0,.6201172-.1152344,1.1904297-.3457031,1.7099609-.2294922,.5200195-.5615234,.96875-.9941406,1.3452148-.4335938,.3769531-.9609375,.6699219-1.5800781,.8798828-.6201172,.2099609-1.3203125,.3149414-2.1005859,.3149414h-2.6298828Zm0-.8198242h2.6298828c.6269531,0,1.1865234-.0864258,1.6806641-.2597656,.4931641-.1733398,.9111328-.4135742,1.2548828-.7202148,.3427734-.3066406,.6064453-.668457,.7900391-1.0849609,.1826172-.4165039,.2744141-.871582,.2744141-1.3652344,0-1.0864258-.3349609-1.9228516-1.0048828-2.5097656-.6699219-.5864258-1.6679688-.8798828-2.9951172-.8798828h-2.6298828v6.8198242Z"/><path class="uuid-8c1ce578-8639-4ed2-b315-cfb5e4de23b2" d="M226.4360264,29.3313802v.8500977h-7.4501953v5.7197266h6.2001953v.8300781h-6.2001953v5.8999023h7.4501953v.8500977h-8.4804688v-14.1499023h8.4804688Zm-1.2597656-3.550293l-2.9199219,2.1601562c-.0673828,.046875-.1289062,.0786133-.1855469,.0952148s-.125,.0249023-.2050781,.0249023h-.7001953l2.2705078-2.0600586c.0927734-.0864258,.1796875-.1450195,.2597656-.1748047,.0800781-.0302734,.2001953-.0454102,.3603516-.0454102h1.1201172Z"/><path class="uuid-8c1ce578-8639-4ed2-b315-cfb5e4de23b2" d="M231.0952061,37.0813802v6.3999023h-1.0195312v-14.1499023h3.609375c1.6337891,0,2.8535156,.3149414,3.6601562,.9448242s1.2099609,1.5551758,1.2099609,2.7749023c0,.5400391-.09375,1.0336914-.2802734,1.4799805-.1865234,.4467773-.4550781,.8388672-.8046875,1.175293s-.7714844,.6132812-1.2646484,.8300781c-.4941406,.2163086-1.0498047,.3583984-1.6699219,.4248047,.1591797,.1000977,.3027344,.2333984,.4296875,.3999023l4.8701172,6.1201172h-.890625c-.1064453,0-.1982422-.0200195-.2744141-.0600586-.0771484-.0400391-.1513672-.1064453-.2255859-.199707l-4.5292969-5.7402344c-.1132812-.1464844-.2353516-.25-.3652344-.3100586s-.3320312-.0898438-.6054688-.0898438h-1.8496094Zm0-.7602539h2.4599609c.6269531,0,1.1884766-.074707,1.6855469-.2246094,.4960938-.1503906,.9160156-.3652344,1.2597656-.6450195,.3427734-.2802734,.6044922-.6166992,.7851562-1.0102539,.1796875-.3930664,.2695312-.8364258,.2695312-1.3300781,0-1.0063477-.3300781-1.7529297-.9902344-2.2397461-.6591797-.4868164-1.6201172-.7299805-2.8798828-.7299805h-2.5898438v6.1796875Z"/><path class="uuid-8c1ce578-8639-4ed2-b315-cfb5e4de23b2" d="M243.7954014,43.4812826h-1.0302734v-14.1499023h1.0302734v14.1499023Z"/><path class="uuid-8c1ce578-8639-4ed2-b315-cfb5e4de23b2" d="M256.8549717,29.3313802v.8500977h-7.4501953v5.7197266h6.2001953v.8300781h-6.2001953v5.8999023h7.4501953v.8500977h-8.4804688v-14.1499023h8.4804688Z"/><path class="uuid-8c1ce578-8639-4ed2-b315-cfb5e4de23b2" d="M265.4243076,42.7513021c.6796875,0,1.2880859-.1181641,1.8251953-.3549805,.5361328-.2368164,.9912109-.5649414,1.3642578-.9848633,.3740234-.4204102,.6591797-.9150391,.8554688-1.4853516,.1962891-.5698242,.2949219-1.1850586,.2949219-1.8447266v-8.75h1.0205078v8.75c0,.7797852-.1240234,1.5083008-.3701172,2.1850586-.2470703,.6767578-.6015625,1.2666016-1.0654297,1.7700195-.4628906,.503418-1.0263672,.8984375-1.6894531,1.1850586-.6640625,.2861328-1.4091797,.4296875-2.2353516,.4296875-.8271484,0-1.5722656-.1435547-2.2353516-.4296875-.6630859-.2866211-1.2265625-.6816406-1.6894531-1.1850586-.4638672-.503418-.8183594-1.0932617-1.0654297-1.7700195-.2460938-.6767578-.3701172-1.4052734-.3701172-2.1850586v-8.75h1.0302734v8.7397461c0,.6601562,.0986328,1.2753906,.2949219,1.8452148s.4804688,1.0649414,.8496094,1.4848633c.3701172,.4199219,.8242188,.75,1.3603516,.9902344,.5371094,.2397461,1.1455078,.3598633,1.8251953,.3598633Z"/><path class="uuid-8c1ce578-8639-4ed2-b315-cfb5e4de23b2" d="M276.1840733,37.0813802v6.3999023h-1.0195312v-14.1499023h3.609375c1.6337891,0,2.8535156,.3149414,3.6601562,.9448242s1.2099609,1.5551758,1.2099609,2.7749023c0,.5400391-.09375,1.0336914-.2802734,1.4799805-.1865234,.4467773-.4550781,.8388672-.8046875,1.175293s-.7714844,.6132812-1.2646484,.8300781c-.4941406,.2163086-1.0498047,.3583984-1.6699219,.4248047,.1591797,.1000977,.3027344,.2333984,.4296875,.3999023l4.8701172,6.1201172h-.890625c-.1064453,0-.1982422-.0200195-.2744141-.0600586-.0771484-.0400391-.1513672-.1064453-.2255859-.199707l-4.5292969-5.7402344c-.1132812-.1464844-.2353516-.25-.3652344-.3100586s-.3320312-.0898438-.6054688-.0898438h-1.8496094Zm0-.7602539h2.4599609c.6269531,0,1.1884766-.074707,1.6855469-.2246094,.4960938-.1503906,.9160156-.3652344,1.2597656-.6450195,.3427734-.2802734,.6044922-.6166992,.7851562-1.0102539,.1796875-.3930664,.2695312-.8364258,.2695312-1.3300781,0-1.0063477-.3300781-1.7529297-.9902344-2.2397461-.6591797-.4868164-1.6201172-.7299805-2.8798828-.7299805h-2.5898438v6.1796875Z"/><path class="uuid-8c1ce578-8639-4ed2-b315-cfb5e4de23b2" d="M303.2543858,36.4012044c0,1.09375-.1630859,2.0766602-.4902344,2.9501953-.3261719,.8735352-.7861328,1.6166992-1.3798828,2.2299805-.5927734,.6132812-1.3027344,1.0834961-2.1298828,1.409668-.8261719,.3271484-1.7431641,.4902344-2.75,.4902344h-5.1601562v-14.1499023h5.1601562c1.0068359,0,1.9238281,.1635742,2.75,.4897461,.8271484,.3266602,1.5371094,.796875,2.1298828,1.4101562,.59375,.6132812,1.0537109,1.3569336,1.3798828,2.2299805,.3271484,.8735352,.4902344,1.8535156,.4902344,2.9399414Zm-1.0595703,0c0-.9863281-.1367188-1.8666992-.4101562-2.6401367-.2734375-.7729492-.6582031-1.4262695-1.1552734-1.9599609-.4960938-.5332031-1.0947266-.9399414-1.7949219-1.2197266-.7001953-.2802734-1.4765625-.4199219-2.3300781-.4199219h-4.1298828v12.4897461h4.1298828c.8535156,0,1.6298828-.1401367,2.3300781-.4199219s1.2988281-.6865234,1.7949219-1.2202148c.4970703-.5332031,.8818359-1.1865234,1.1552734-1.9599609,.2734375-.7729492,.4101562-1.65625,.4101562-2.6499023Z"/><path class="uuid-8c1ce578-8639-4ed2-b315-cfb5e4de23b2" d="M315.0248936,29.3313802v.8500977h-7.4501953v5.7197266h6.2001953v.8300781h-6.2001953v5.8999023h7.4501953v.8500977h-8.4804688v-14.1499023h8.4804688Z"/><path class="uuid-8c1ce578-8639-4ed2-b315-cfb5e4de23b2" d="M325.2143467,31.0511068c-.0605469,.1137695-.1464844,.1704102-.2597656,.1704102-.0878906,0-.1992188-.0620117-.3369141-.1850586-.1367188-.1235352-.3222656-.2602539-.5566406-.4101562s-.5263672-.2880859-.8779297-.4150391c-.3505859-.1264648-.7841797-.1899414-1.2988281-.1899414s-.9677734,.0732422-1.359375,.2197266c-.3916016,.1469727-.71875,.347168-.9833984,.6000977-.2636719,.253418-.4648438,.546875-.6015625,.8803711-.1376953,.3330078-.2060547,.6831055-.2060547,1.0498047,0,.4799805,.1015625,.8764648,.3056641,1.1899414,.203125,.3134766,.4726562,.5800781,.8066406,.7998047,.3330078,.2202148,.7119141,.4052734,1.1357422,.5551758s.8603516,.2983398,1.3076172,.4448242c.4472656,.1469727,.8828125,.3085938,1.3066406,.4853516s.8027344,.3984375,1.1367188,.6650391c.3330078,.2666016,.6015625,.5947266,.8056641,.9848633s.3056641,.875,.3056641,1.4550781c0,.5932617-.1015625,1.1513672-.3046875,1.6748047-.2041016,.5234375-.4990234,.9785156-.8857422,1.3652344s-.859375,.6914062-1.4199219,.9150391c-.5595703,.2231445-1.2001953,.3349609-1.9199219,.3349609-.9335938,0-1.7363281-.1650391-2.4101562-.4951172-.6728516-.3300781-1.2626953-.7817383-1.7695312-1.3549805l.2802734-.4399414c.0800781-.1000977,.1728516-.1499023,.2792969-.1499023,.0605469,0,.1367188,.0395508,.2304688,.1196289s.2070312,.1787109,.3408203,.2949219c.1328125,.1171875,.2939453,.2436523,.4804688,.3803711s.4042969,.2631836,.6513672,.3798828c.2460938,.1166992,.5302734,.2148438,.8505859,.2949219s.6845703,.1201172,1.0917969,.1201172c.5605469,0,1.0615234-.0849609,1.5019531-.2548828,.4404297-.1704102,.8125-.4018555,1.1162109-.6953125,.3037109-.2929688,.5361328-.6416016,.6962891-1.0449219s.2402344-.8349609,.2402344-1.2949219c0-.5-.1015625-.9116211-.3056641-1.2348633-.203125-.3232422-.4726562-.5932617-.8056641-.8100586-.3339844-.2167969-.7128906-.3984375-1.1367188-.5449219-.4238281-.1469727-.859375-.2900391-1.3066406-.4301758s-.8828125-.2963867-1.3066406-.4702148c-.4248047-.1728516-.8037109-.3950195-1.1367188-.6645508-.3339844-.2700195-.6025391-.6069336-.8066406-1.0102539-.203125-.4033203-.3056641-.9082031-.3056641-1.5151367,0-.4731445,.0908203-.9296875,.2705078-1.3696289,.1806641-.4404297,.4443359-.8286133,.7910156-1.1650391,.3476562-.3369141,.7763672-.6069336,1.2871094-.8100586,.5107422-.2036133,1.0927734-.3051758,1.7480469-.3051758,.7333984,0,1.3925781,.1166992,1.9775391,.3500977,.5839844,.2333984,1.1162109,.5898438,1.5966797,1.0698242l-.2402344,.4599609Z"/><path class="uuid-8c1ce578-8639-4ed2-b315-cfb5e4de23b2" d="M97.5878819,52.086263v2.1401367h-6.4101562v4.0097656h5.050293v2.0698242h-5.050293v4.090332h6.4101562v2.1499023h-9.1201172v-14.4599609h9.1201172Z"/><path class="uuid-8c1ce578-8639-4ed2-b315-cfb5e4de23b2" d="M110.1074131,52.086263v2.2099609h-4.3500977v12.25h-2.6899414v-12.25h-4.3696289v-2.2099609h11.409668Z"/><path class="uuid-8c1ce578-8639-4ed2-b315-cfb5e4de23b2" d="M117.6371983,64.3763021c.5200195,0,.9853516-.0864258,1.3950195-.2602539,.4101562-.1733398,.7568359-.4165039,1.0400391-.7299805,.2832031-.3129883,.5-.6933594,.6503906-1.1396484,.1499023-.4467773,.2246094-.9467773,.2246094-1.5v-8.6601562h2.6899414v8.6601562c0,.8598633-.1381836,1.6547852-.4145508,2.3847656-.2768555,.7299805-.675293,1.3598633-1.1953125,1.8901367-.5200195,.5297852-1.1499023,.9433594-1.8901367,1.2397461-.7397461,.296875-1.5732422,.4453125-2.5,.4453125-.9262695,0-1.7597656-.1484375-2.5-.4453125-.7397461-.2963867-1.3681641-.7099609-1.8847656-1.2397461-.5166016-.5302734-.9135742-1.1601562-1.1899414-1.8901367-.2768555-.7299805-.4150391-1.5249023-.4150391-2.3847656v-8.6601562h2.6899414v8.6499023c0,.5537109,.0751953,1.0537109,.2250977,1.5,.1499023,.4467773,.3647461,.8286133,.6450195,1.1450195,.2797852,.3168945,.625,.5615234,1.034668,.7348633,.4101562,.1738281,.875,.2602539,1.3950195,.2602539Z"/><path class="uuid-8c1ce578-8639-4ed2-b315-cfb5e4de23b2" d="M139.2172764,59.3162435c0,1.0600586-.1767578,2.0332031-.5297852,2.9199219-.3535156,.8867188-.8500977,1.6499023-1.4902344,2.2900391-.6396484,.6401367-1.409668,1.1367188-2.3095703,1.4902344-.9003906,.3530273-1.8969727,.5297852-2.9902344,.5297852h-5.5200195v-14.4599609h5.5200195c1.0932617,0,2.0898438,.1782227,2.9902344,.5351562,.8999023,.3564453,1.6699219,.8530273,2.3095703,1.4897461,.6401367,.6367188,1.1367188,1.3984375,1.4902344,2.2851562,.3530273,.8867188,.5297852,1.8598633,.5297852,2.9199219Zm-2.75,0c0-.793457-.1064453-1.5048828-.3198242-2.1352539-.2133789-.6298828-.5166016-1.1630859-.9101562-1.5996094-.3930664-.4365234-.871582-.7714844-1.4350586-1.0053711-.5629883-.2329102-1.1982422-.3496094-1.9047852-.3496094h-2.8100586v10.1796875h2.8100586c.706543,0,1.3417969-.1162109,1.9047852-.3500977,.5634766-.2329102,1.0419922-.5678711,1.4350586-1.0048828,.3935547-.4365234,.6967773-.9697266,.9101562-1.6000977,.2133789-.6298828,.3198242-1.3413086,.3198242-2.1347656Z"/><path class="uuid-8c1ce578-8639-4ed2-b315-cfb5e4de23b2" d="M150.4477451,52.086263v2.1401367h-6.4101562v4.0097656h5.050293v2.0698242h-5.050293v4.090332h6.4101562v2.1499023h-9.1201172v-14.4599609h9.1201172Z"/><path class="uuid-8c1ce578-8639-4ed2-b315-cfb5e4de23b2" d="M160.5278233,54.7161458c-.0742188,.1469727-.1582031,.25-.2558594,.3100586-.0957031,.0600586-.2109375,.0898438-.3447266,.0898438s-.2832031-.0512695-.449707-.1547852c-.1669922-.1035156-.3637695-.2182617-.590332-.3452148-.2265625-.1264648-.4916992-.2412109-.7949219-.3447266s-.6616211-.1552734-1.074707-.1552734c-.3735352,0-.6987305,.0454102-.9750977,.1352539-.2768555,.0898438-.5102539,.2148438-.7001953,.375s-.331543,.3515625-.4248047,.574707c-.09375,.2236328-.1401367,.46875-.1401367,.7353516,0,.3398438,.0952148,.6235352,.2851562,.8500977s.4414062,.4199219,.7548828,.5795898c.3134766,.1601562,.6699219,.3037109,1.0698242,.4301758,.4003906,.1269531,.8085938,.2617188,1.2250977,.4047852,.4165039,.1435547,.8251953,.3100586,1.2250977,.5,.3994141,.1904297,.7568359,.4301758,1.0693359,.7202148,.3144531,.2900391,.5664062,.6450195,.7558594,1.0649414s.2851562,.9301758,.2851562,1.5302734c0,.6533203-.1113281,1.2646484-.3359375,1.8349609-.2226562,.5698242-.5488281,1.0664062-.9794922,1.4897461s-.9550781,.7568359-1.574707,1c-.6201172,.2431641-1.3300781,.3652344-2.1303711,.3652344-.4599609,0-.9130859-.0449219-1.3598633-.1352539-.4467773-.0898438-.875-.2182617-1.2851562-.3847656-.409668-.1665039-.793457-.3666992-1.1499023-.6000977s-.6748047-.4931641-.9550781-.7802734l.7802734-1.2895508c.0732422-.0932617,.1616211-.171875,.2646484-.2353516,.1035156-.0629883,.2182617-.0947266,.3452148-.0947266,.1665039,0,.3466797,.0683594,.5400391,.2050781s.4213867,.2880859,.6850586,.4545898c.2631836,.1669922,.5732422,.3188477,.9296875,.4550781,.3569336,.1367188,.7851562,.2050781,1.2851562,.2050781,.7666016,0,1.3598633-.1816406,1.7802734-.5449219,.4199219-.3632812,.6298828-.8852539,.6298828-1.5649414,0-.3798828-.0952148-.6899414-.2851562-.9301758-.1899414-.2397461-.4418945-.4414062-.7548828-.6049805-.3134766-.1630859-.6699219-.3012695-1.0698242-.4150391-.4003906-.1132812-.8071289-.2363281-1.2202148-.3701172-.4135742-.1333008-.8198242-.2929688-1.2202148-.4799805-.3999023-.1865234-.7563477-.4296875-1.0698242-.7299805-.3134766-.2998047-.5649414-.6748047-.7548828-1.125-.1899414-.449707-.2851562-1.0048828-.2851562-1.6650391,0-.5263672,.1049805-1.0395508,.3149414-1.5395508s.5166016-.9433594,.9199219-1.3300781,.8984375-.6967773,1.4853516-.9301758c.5864258-.2333984,1.2563477-.3500977,2.0097656-.3500977,.8535156,0,1.6401367,.1337891,2.3598633,.3999023,.7197266,.2670898,1.3330078,.6401367,1.8408203,1.1201172l-.6601562,1.2700195Z"/><path class="uuid-8c1ce578-8639-4ed2-b315-cfb5e4de23b2" d="M177.5571201,52.086263v2.2099609h-4.3505859v12.25h-2.6894531v-12.25h-4.3701172v-2.2099609h11.4101562Z"/><path class="uuid-8c1ce578-8639-4ed2-b315-cfb5e4de23b2" d="M188.3862217,52.086263v2.1401367h-6.4101562v4.0097656h5.0498047v2.0698242h-5.0498047v4.090332h6.4101562v2.1499023h-9.1201172v-14.4599609h9.1201172Z"/><path class="uuid-8c1ce578-8639-4ed2-b315-cfb5e4de23b2" d="M200.6567295,63.1360677c.1464844,0,.2724609,.0566406,.3798828,.1699219l1.0595703,1.1503906c-.5869141,.7265625-1.3085938,1.2832031-2.1650391,1.6699219s-1.8847656,.5800781-3.0849609,.5800781c-1.0732422,0-2.0380859-.1835938-2.8945312-.550293-.8574219-.3662109-1.5888672-.8764648-2.1953125-1.5297852s-1.0712891-1.4335938-1.3945312-2.3398438c-.3242188-.9067383-.4853516-1.8969727-.4853516-2.9702148,0-1.0864258,.1796875-2.081543,.5400391-2.9848633,.359375-.9033203,.8662109-1.6816406,1.5195312-2.3349609s1.4355469-1.1616211,2.3457031-1.5253906c.9091797-.3632812,1.9150391-.5449219,3.0146484-.5449219,1.0732422,0,2.0117188,.171875,2.8154297,.5151367,.8027344,.3432617,1.4912109,.7983398,2.0644531,1.3647461l-.9003906,1.25c-.0527344,.0800781-.1210938,.1503906-.2041016,.2104492-.0839844,.0595703-.1992188,.0898438-.3457031,.0898438-.1533203,0-.3095703-.0600586-.4697266-.1801758s-.3632812-.25-.6103516-.3896484c-.2460938-.1401367-.5576172-.2700195-.9345703-.3901367s-.8554688-.1801758-1.4355469-.1801758c-.6796875,0-1.3046875,.1186523-1.875,.3549805-.5693359,.2368164-1.0595703,.5751953-1.4697266,1.0151367s-.7294922,.9750977-.9599609,1.6049805c-.2294922,.6298828-.3447266,1.3383789-.3447266,2.125,0,.8134766,.1152344,1.5366211,.3447266,2.1699219,.2304688,.6333008,.5419922,1.1669922,.9355469,1.6000977,.3925781,.4335938,.8564453,.7651367,1.3896484,.9951172s1.1064453,.3447266,1.7197266,.3447266c.3671875,0,.6982422-.0200195,.9951172-.0600586s.5703125-.1030273,.8203125-.1899414c.25-.0864258,.4863281-.1982422,.7099609-.3349609,.2226562-.1367188,.4453125-.3046875,.6650391-.5048828,.0664062-.0600586,.1367188-.1083984,.2099609-.1450195s.1533203-.0551758,.2402344-.0551758Z"/><path class="uuid-8c1ce578-8639-4ed2-b315-cfb5e4de23b2" d="M216.3266514,66.546224h-2.7099609v-6.3198242h-6.7802734v6.3198242h-2.7099609v-14.4599609h2.7099609v6.2197266h6.7802734v-6.2197266h2.7099609v14.4599609Z"/><path class="uuid-8c1ce578-8639-4ed2-b315-cfb5e4de23b2" d="M220.9565342,52.1013997c.0800781,.0097656,.1513672,.0297852,.2148438,.0600586,.0634766,.0297852,.125,.0732422,.1855469,.1298828,.0595703,.0566406,.1259766,.1318359,.1992188,.2250977l7.5908203,9.6699219c-.0273438-.2333984-.0449219-.4619141-.0556641-.6850586-.0097656-.2231445-.0146484-.4316406-.0146484-.625v-8.7900391h2.3701172v14.4599609h-1.390625c-.2128906,0-.3896484-.0332031-.5292969-.1000977-.140625-.0664062-.2773438-.1865234-.4101562-.3598633l-7.5605469-9.6298828c.0205078,.2133789,.0351562,.4248047,.0458984,.6347656,.0097656,.2099609,.0146484,.4018555,.0146484,.5751953v8.8798828h-2.3701172v-14.4599609h1.4101562c.1201172,0,.2197266,.0048828,.2998047,.0151367Z"/><path class="uuid-8c1ce578-8639-4ed2-b315-cfb5e4de23b2" d="M248.2368076,59.3162435c0,1.0600586-.1767578,2.0415039-.5302734,2.9448242-.3535156,.9038086-.8496094,1.6850586-1.4902344,2.3452148-.6396484,.6601562-1.4091797,1.1748047-2.3095703,1.5449219s-1.8964844,.5551758-2.9902344,.5551758c-1.0927734,0-2.0917969-.1850586-2.9951172-.5551758s-1.6767578-.8847656-2.3193359-1.5449219c-.6435547-.6601562-1.1416016-1.4414062-1.4951172-2.3452148-.3535156-.9033203-.5302734-1.8847656-.5302734-2.9448242s.1767578-2.0415039,.5302734-2.9448242,.8515625-1.6850586,1.4951172-2.3452148c.6425781-.6601562,1.4160156-1.1748047,2.3193359-1.5449219s1.9023438-.5551758,2.9951172-.5551758c1.09375,0,2.0898438,.1870117,2.9902344,.5600586,.9003906,.3735352,1.6699219,.8886719,2.3095703,1.5449219,.640625,.6567383,1.1367188,1.4370117,1.4902344,2.340332s.5302734,1.8847656,.5302734,2.9448242Zm-2.7597656,0c0-.793457-.1054688-1.5048828-.3154297-2.1352539-.2099609-.6298828-.5117188-1.1645508-.9052734-1.6049805-.3925781-.4399414-.8710938-.7763672-1.4345703-1.0097656s-1.1982422-.3500977-1.9052734-.3500977c-.7060547,0-1.3427734,.1166992-1.9101562,.3500977-.5664062,.2333984-1.0478516,.5698242-1.4443359,1.0097656-.3974609,.4404297-.7021484,.9750977-.9150391,1.6049805-.2138672,.6303711-.3203125,1.3417969-.3203125,2.1352539s.1064453,1.5048828,.3203125,2.1347656c.2128906,.6303711,.5175781,1.1635742,.9150391,1.6000977,.3964844,.4370117,.8779297,.7719727,1.4443359,1.0048828,.5673828,.2338867,1.2041016,.3500977,1.9101562,.3500977,.7070312,0,1.3417969-.1162109,1.9052734-.3500977,.5634766-.2329102,1.0419922-.5678711,1.4345703-1.0048828,.3935547-.4365234,.6953125-.9697266,.9052734-1.6000977,.2099609-.6298828,.3154297-1.3413086,.3154297-2.1347656Z"/><path class="uuid-8c1ce578-8639-4ed2-b315-cfb5e4de23b2" d="M253.0473545,64.3260091h5.7900391v2.2202148h-8.4804688v-14.4599609h2.6904297v12.2397461Z"/><path class="uuid-8c1ce578-8639-4ed2-b315-cfb5e4de23b2" d="M273.7670811,59.3162435c0,1.0600586-.1767578,2.0415039-.5302734,2.9448242-.3535156,.9038086-.8496094,1.6850586-1.4902344,2.3452148-.6396484,.6601562-1.4091797,1.1748047-2.3095703,1.5449219s-1.8964844,.5551758-2.9902344,.5551758c-1.0927734,0-2.0917969-.1850586-2.9951172-.5551758s-1.6767578-.8847656-2.3193359-1.5449219c-.6435547-.6601562-1.1416016-1.4414062-1.4951172-2.3452148-.3535156-.9033203-.5302734-1.8847656-.5302734-2.9448242s.1767578-2.0415039,.5302734-2.9448242,.8515625-1.6850586,1.4951172-2.3452148c.6425781-.6601562,1.4160156-1.1748047,2.3193359-1.5449219s1.9023438-.5551758,2.9951172-.5551758c1.09375,0,2.0898438,.1870117,2.9902344,.5600586,.9003906,.3735352,1.6699219,.8886719,2.3095703,1.5449219,.640625,.6567383,1.1367188,1.4370117,1.4902344,2.340332s.5302734,1.8847656,.5302734,2.9448242Zm-2.7597656,0c0-.793457-.1054688-1.5048828-.3154297-2.1352539-.2099609-.6298828-.5117188-1.1645508-.9052734-1.6049805-.3925781-.4399414-.8710938-.7763672-1.4345703-1.0097656s-1.1982422-.3500977-1.9052734-.3500977c-.7060547,0-1.3427734,.1166992-1.9101562,.3500977-.5664062,.2333984-1.0478516,.5698242-1.4443359,1.0097656-.3974609,.4404297-.7021484,.9750977-.9150391,1.6049805-.2138672,.6303711-.3203125,1.3417969-.3203125,2.1352539s.1064453,1.5048828,.3203125,2.1347656c.2128906,.6303711,.5175781,1.1635742,.9150391,1.6000977,.3964844,.4370117,.8779297,.7719727,1.4443359,1.0048828,.5673828,.2338867,1.2041016,.3500977,1.9101562,.3500977,.7070312,0,1.3417969-.1162109,1.9052734-.3500977,.5634766-.2329102,1.0419922-.5678711,1.4345703-1.0048828,.3935547-.4365234,.6953125-.9697266,.9052734-1.6000977,.2099609-.6298828,.3154297-1.3413086,.3154297-2.1347656Z"/><path class="uuid-8c1ce578-8639-4ed2-b315-cfb5e4de23b2" d="M282.5268467,64.5662435c.6074219,0,1.1357422-.0551758,1.5849609-.1650391,.4501953-.1098633,.8789062-.2617188,1.2851562-.4550781v-2.6298828h-1.8095703c-.1738281,0-.3105469-.0483398-.4101562-.1450195s-.1503906-.2148438-.1503906-.3549805v-1.5200195h4.8105469v5.8500977c-.3671875,.2666016-.7490234,.4985352-1.1455078,.6948242-.3964844,.1967773-.8193359,.3583984-1.2695312,.4848633-.4501953,.1269531-.9316406,.2216797-1.4453125,.2851562s-1.0664062,.0952148-1.6601562,.0952148c-1.0527344,0-2.0234375-.1835938-2.9091797-.550293-.8867188-.3662109-1.6542969-.8764648-2.3007812-1.5297852s-1.1513672-1.4335938-1.5146484-2.3398438c-.3632812-.9067383-.5449219-1.8969727-.5449219-2.9702148,0-1.0864258,.1767578-2.0834961,.5302734-2.9902344,.3525391-.90625,.8544922-1.6865234,1.5048828-2.3398438,.6494141-.6533203,1.4384766-1.1601562,2.3642578-1.5200195,.9267578-.3598633,1.9667969-.5400391,3.1201172-.5400391,1.1806641,0,2.2021484,.175293,3.0654297,.5249023,.8632812,.3500977,1.5947266,.8051758,2.1953125,1.3652344l-.7802734,1.2202148c-.1533203,.246582-.3564453,.3696289-.6103516,.3696289-.1601562,0-.3232422-.0532227-.4902344-.159668-.2128906-.1269531-.4316406-.253418-.6542969-.3803711-.2236328-.1264648-.4707031-.2363281-.7402344-.3295898-.2695312-.09375-.5732422-.1704102-.9101562-.2304688-.3369141-.0595703-.7246094-.0898438-1.1650391-.0898438-.7128906,0-1.3583984,.1201172-1.9345703,.3598633-.5771484,.2402344-1.0683594,.5834961-1.4755859,1.0302734-.40625,.4467773-.7197266,.9833984-.9394531,1.6098633-.2197266,.6269531-.3300781,1.3266602-.3300781,2.1000977,0,.8334961,.1162109,1.5751953,.3496094,2.2250977s.5605469,1.1982422,.9804688,1.6450195,.9199219,.7880859,1.5,1.0249023,1.2128906,.3549805,1.8994141,.3549805Z"/><path class="uuid-8c1ce578-8639-4ed2-b315-cfb5e4de23b2" d="M293.3774326,66.546224h-2.7001953v-14.4599609h2.7001953v14.4599609Z"/><path class="uuid-8c1ce578-8639-4ed2-b315-cfb5e4de23b2" d="M310.4975498,59.3162435c0,.6464844-.0664062,1.2651367-.2001953,1.8549805s-.3251953,1.1416016-.5751953,1.6547852c-.25,.5136719-.5546875,.9853516-.9150391,1.4150391-.359375,.4301758-.7695312,.8085938-1.2294922,1.1352539l3.6699219,4h-2.2197266c-.3203125,0-.6083984-.043457-.8652344-.1298828-.2568359-.0869141-.4921875-.2470703-.7050781-.4799805l-2.1201172-2.340332c-.3398438,.09375-.6884766,.1635742-1.0449219,.2099609-.3564453,.046875-.7285156,.0703125-1.1152344,.0703125-1.0927734,0-2.0917969-.1850586-2.9951172-.5551758s-1.6767578-.8847656-2.3193359-1.5449219c-.6435547-.6601562-1.1416016-1.4414062-1.4951172-2.3452148-.3535156-.9033203-.5302734-1.8847656-.5302734-2.9448242s.1767578-2.0415039,.5302734-2.9448242,.8515625-1.6850586,1.4951172-2.3452148c.6425781-.6601562,1.4160156-1.1748047,2.3193359-1.5449219s1.9023438-.5551758,2.9951172-.5551758c1.09375,0,2.0898438,.1870117,2.9902344,.5600586,.9003906,.3735352,1.6699219,.8886719,2.3095703,1.5449219,.640625,.6567383,1.1367188,1.4370117,1.4902344,2.340332s.5302734,1.8847656,.5302734,2.9448242Zm-2.7597656,0c0-.793457-.1054688-1.5048828-.3154297-2.1352539-.2099609-.6298828-.5117188-1.1645508-.9052734-1.6049805-.3925781-.4399414-.8710938-.7763672-1.4345703-1.0097656s-1.1982422-.3500977-1.9052734-.3500977c-.7060547,0-1.3427734,.1166992-1.9101562,.3500977-.5664062,.2333984-1.0478516,.5698242-1.4443359,1.0097656-.3974609,.4404297-.7021484,.9750977-.9150391,1.6049805-.2138672,.6303711-.3203125,1.3417969-.3203125,2.1352539s.1064453,1.5048828,.3203125,2.1347656c.2128906,.6303711,.5175781,1.1635742,.9150391,1.6000977,.3964844,.4370117,.8779297,.7719727,1.4443359,1.0048828,.5673828,.2338867,1.2041016,.3500977,1.9101562,.3500977,.7070312,0,1.3417969-.1162109,1.9052734-.3500977,.5634766-.2329102,1.0419922-.5678711,1.4345703-1.0048828,.3935547-.4365234,.6953125-.9697266,.9052734-1.6000977,.2099609-.6298828,.3154297-1.3413086,.3154297-2.1347656Z"/><path class="uuid-8c1ce578-8639-4ed2-b315-cfb5e4de23b2" d="M318.4379795,64.3763021c.5195312,0,.984375-.0864258,1.3945312-.2602539,.4101562-.1733398,.7568359-.4165039,1.0400391-.7299805,.2832031-.3129883,.5-.6933594,.6503906-1.1396484,.1494141-.4467773,.2246094-.9467773,.2246094-1.5v-8.6601562h2.6904297v8.6601562c0,.8598633-.1386719,1.6547852-.4150391,2.3847656-.2773438,.7299805-.6748047,1.3598633-1.1953125,1.8901367-.5195312,.5297852-1.1503906,.9433594-1.8896484,1.2397461-.7402344,.296875-1.5732422,.4453125-2.5,.4453125s-1.7607422-.1484375-2.5-.4453125c-.7402344-.2963867-1.3691406-.7099609-1.8857422-1.2397461-.5166016-.5302734-.9130859-1.1601562-1.1894531-1.8901367s-.4150391-1.5249023-.4150391-2.3847656v-8.6601562h2.6904297v8.6499023c0,.5537109,.0742188,1.0537109,.2246094,1.5,.1503906,.4467773,.3652344,.8286133,.6445312,1.1450195,.2802734,.3168945,.625,.5615234,1.0351562,.7348633,.4101562,.1738281,.875,.2602539,1.3955078,.2602539Z"/><path class="uuid-8c1ce578-8639-4ed2-b315-cfb5e4de23b2" d="M336.2973545,52.086263v2.1401367h-6.4101562v4.0097656h5.0498047v2.0698242h-5.0498047v4.090332h6.4101562v2.1499023h-9.1201172v-14.4599609h9.1201172Z"/><path class="uuid-8c1ce578-8639-4ed2-b315-cfb5e4de23b2" d="M346.3774326,54.7161458c-.0732422,.1469727-.1582031,.25-.2548828,.3100586s-.2119141,.0898438-.3447266,.0898438c-.1337891,0-.2841797-.0512695-.4501953-.1547852-.1669922-.1035156-.3632812-.2182617-.5898438-.3452148-.2265625-.1264648-.4921875-.2412109-.7949219-.3447266-.3037109-.1035156-.6621094-.1552734-1.0751953-.1552734-.3740234,0-.6982422,.0454102-.9755859,.1352539-.2763672,.0898438-.5097656,.2148438-.6992188,.375-.1904297,.1601562-.3320312,.3515625-.4257812,.574707-.0927734,.2236328-.1396484,.46875-.1396484,.7353516,0,.3398438,.0947266,.6235352,.2851562,.8500977,.1894531,.2265625,.4414062,.4199219,.7548828,.5795898,.3134766,.1601562,.6699219,.3037109,1.0703125,.4301758,.3994141,.1269531,.8076172,.2617188,1.2246094,.4047852,.4169922,.1435547,.8251953,.3100586,1.2246094,.5,.4003906,.1904297,.7568359,.4301758,1.0703125,.7202148s.5654297,.6450195,.7548828,1.0649414c.1904297,.4199219,.2851562,.9301758,.2851562,1.5302734,0,.6533203-.1113281,1.2646484-.3349609,1.8349609-.2236328,.5698242-.5498047,1.0664062-.9794922,1.4897461-.4306641,.4233398-.9550781,.7568359-1.5751953,1s-1.3300781,.3652344-2.1298828,.3652344c-.4599609,0-.9140625-.0449219-1.3603516-.1352539-.4462891-.0898438-.875-.2182617-1.2851562-.3847656s-.7929688-.3666992-1.1494141-.6000977c-.3574219-.2333984-.6757812-.4931641-.9550781-.7802734l.7792969-1.2895508c.0732422-.0932617,.1621094-.171875,.265625-.2353516,.1025391-.0629883,.2177734-.0947266,.3447266-.0947266,.1669922,0,.3466797,.0683594,.5400391,.2050781s.421875,.2880859,.6845703,.4545898c.2636719,.1669922,.5732422,.3188477,.9306641,.4550781,.3564453,.1367188,.7851562,.2050781,1.2851562,.2050781,.7666016,0,1.359375-.1816406,1.7792969-.5449219s.6298828-.8852539,.6298828-1.5649414c0-.3798828-.0947266-.6899414-.2841797-.9301758-.1904297-.2397461-.4423828-.4414062-.7558594-.6049805-.3134766-.1630859-.6699219-.3012695-1.0693359-.4150391-.4003906-.1132812-.8066406-.2363281-1.2207031-.3701172-.4130859-.1333008-.8193359-.2929688-1.2197266-.4799805-.3994141-.1865234-.7568359-.4296875-1.0693359-.7299805-.3134766-.2998047-.5654297-.6748047-.7558594-1.125-.1894531-.449707-.2841797-1.0048828-.2841797-1.6650391,0-.5263672,.1044922-1.0395508,.3144531-1.5395508s.5166016-.9433594,.9199219-1.3300781,.8984375-.6967773,1.4853516-.9301758c.5859375-.2333984,1.2568359-.3500977,2.0097656-.3500977,.8535156,0,1.6396484,.1337891,2.3603516,.3999023,.7197266,.2670898,1.3330078,.6401367,1.8398438,1.1201172l-.6601562,1.2700195Z"/><path class="uuid-8c1ce578-8639-4ed2-b315-cfb5e4de23b2" d="M101.0175694,82.4012044c0,1.09375-.1630859,2.0766602-.4897461,2.9501953s-.7866211,1.6166992-1.3798828,2.2299805c-.59375,.6132812-1.3037109,1.0834961-2.1303711,1.409668-.8266602,.3271484-1.7431641,.4902344-2.75,.4902344h-5.159668v-14.1499023h5.159668c1.0068359,0,1.9233398,.1635742,2.75,.4897461,.8266602,.3266602,1.5366211,.796875,2.1303711,1.4101562,.5932617,.6132812,1.0532227,1.3569336,1.3798828,2.2299805,.3266602,.8735352,.4897461,1.8535156,.4897461,2.9399414Zm-1.0595703,0c0-.9863281-.1367188-1.8666992-.4101562-2.6401367-.2734375-.7729492-.6586914-1.4262695-1.1552734-1.9599609-.496582-.5332031-1.0947266-.9399414-1.7949219-1.2197266-.699707-.2802734-1.4765625-.4199219-2.3300781-.4199219h-4.1298828v12.4897461h4.1298828c.8535156,0,1.6303711-.1401367,2.3300781-.4199219,.7001953-.2797852,1.2983398-.6865234,1.7949219-1.2202148,.496582-.5332031,.8818359-1.1865234,1.1552734-1.9599609,.2734375-.7729492,.4101562-1.65625,.4101562-2.6499023Z"/><path class="uuid-8c1ce578-8639-4ed2-b315-cfb5e4de23b2" d="M112.7875889,75.3313802v.8500977h-7.4501953v5.7197266h6.2001953v.8300781h-6.2001953v5.8999023h7.4501953v.8500977h-8.4799805v-14.1499023h8.4799805Z"/><path class="uuid-8c1ce578-8639-4ed2-b315-cfb5e4de23b2" d="M126.9672764,77.3914388c-.0600586,.0996094-.1235352,.1748047-.1899414,.2246094-.0668945,.050293-.1538086,.0751953-.2602539,.0751953-.1132812,0-.2451172-.0566406-.3950195-.1699219s-.3398438-.2382812-.5698242-.375-.5068359-.2617188-.8300781-.375-.7148438-.1699219-1.1748047-.1699219c-.4335938,0-.8168945,.0581055-1.1503906,.1748047-.3330078,.1166992-.6113281,.2749023-.8349609,.4750977-.2231445,.2001953-.3916016,.4350586-.5048828,.7050781s-.1699219,.5615234-.1699219,.875c0,.3999023,.0981445,.7314453,.2949219,.9951172,.1967773,.2631836,.456543,.4882812,.7802734,.6748047,.3232422,.1865234,.6899414,.3486328,1.0996094,.4848633,.4101562,.1367188,.8300781,.2783203,1.2602539,.425293,.4301758,.1464844,.8500977,.3115234,1.2597656,.4946289,.4101562,.1835938,.7768555,.4150391,1.1000977,.6953125,.3232422,.2797852,.5834961,.6235352,.7802734,1.0297852,.1962891,.4067383,.2949219,.9067383,.2949219,1.5,0,.6269531-.1069336,1.215332-.3203125,1.7651367s-.5249023,1.0283203-.9345703,1.4350586c-.4101562,.4067383-.9135742,.7265625-1.5102539,.9599609s-1.2749023,.3500977-2.0351562,.3500977c-.9267578,0-1.7714844-.168457-2.534668-.5053711-.7636719-.3364258-1.4150391-.7915039-1.9550781-1.3647461l.5600586-.9199219c.0532227-.0732422,.1181641-.1352539,.1948242-.1850586,.0766602-.050293,.1616211-.0751953,.2548828-.0751953,.1401367,0,.300293,.0751953,.4799805,.2250977,.1801758,.1499023,.4052734,.3149414,.675293,.4951172,.2700195,.1796875,.5966797,.3447266,.9799805,.4951172,.3833008,.1499023,.8515625,.2246094,1.4047852,.2246094,.4599609,0,.8701172-.0629883,1.2299805-.1899414,.3603516-.1264648,.6650391-.3046875,.9150391-.534668s.4418945-.5053711,.5751953-.8251953,.199707-.6767578,.199707-1.0698242c0-.4335938-.0981445-.7885742-.2949219-1.0649414-.1967773-.2768555-.4550781-.5083008-.7749023-.6953125-.3198242-.1865234-.6850586-.3447266-1.0952148-.4750977-.409668-.1298828-.8295898-.2631836-1.2597656-.3999023s-.8500977-.2949219-1.2597656-.4750977c-.4101562-.1796875-.7753906-.4130859-1.0952148-.699707s-.5786133-.6450195-.7749023-1.0751953c-.1967773-.4296875-.2949219-.9614258-.2949219-1.5947266,0-.5068359,.0981445-.996582,.2949219-1.4702148,.1962891-.4731445,.4814453-.8930664,.8549805-1.2597656,.3730469-.3666992,.8349609-.6601562,1.3847656-.8803711,.550293-.2197266,1.1816406-.3300781,1.8950195-.3300781,.800293,0,1.5302734,.1269531,2.1899414,.3803711,.6601562,.253418,1.2368164,.6196289,1.7299805,1.1000977l-.4697266,.9199219Z"/><path class="uuid-8c1ce578-8639-4ed2-b315-cfb5e4de23b2" d="M139.0571201,75.1512044v1.5800781h-6.8798828v5.0097656h5.8798828v1.5800781h-5.8798828v6.1601562h-1.949707v-14.3300781h8.8295898Z"/><path class="uuid-8c1ce578-8639-4ed2-b315-cfb5e4de23b2" d="M152.0170811,89.4812826h-1.5c-.1733398,0-.3129883-.043457-.4199219-.1298828-.1064453-.0869141-.1865234-.1967773-.2397461-.3300781l-1.340332-3.4599609h-6.4296875l-1.340332,3.4599609c-.0463867,.1201172-.1264648,.2265625-.2397461,.3198242-.1132812,.09375-.253418,.1401367-.4199219,.1401367h-1.5l5.7299805-14.3300781h1.9697266l5.7299805,14.3300781Zm-9.3896484-5.3198242h5.3500977l-2.25-5.8300781c-.1469727-.3598633-.2900391-.8100586-.4301758-1.3500977-.0737305,.2734375-.1450195,.5249023-.2148438,.7548828-.0703125,.2299805-.1386719,.4316406-.2050781,.6049805l-2.25,5.8203125Z"/><path class="uuid-8c1ce578-8639-4ed2-b315-cfb5e4de23b2" d="M157.1567295,82.1214193l-4.7299805-6.9702148h1.9301758c.1401367,0,.2431641,.0234375,.3100586,.0703125,.0664062,.0463867,.1264648,.1132812,.1796875,.199707l3.7402344,5.7402344c.0463867-.1401367,.1166992-.293457,.2099609-.4599609l3.5297852-5.2402344c.0605469-.0932617,.125-.168457,.1953125-.2250977s.1542969-.0849609,.2558594-.0849609h1.8496094l-4.75,6.8798828,4.9101562,7.4501953h-1.9199219c-.1484375,0-.2617188-.0380859-.3457031-.1152344-.0839844-.0761719-.1523438-.1611328-.2050781-.2548828l-3.8398438-6.0097656c-.046875,.1396484-.1069336,.2734375-.1801758,.3999023l-3.7397461,5.6098633c-.0600586,.09375-.128418,.1787109-.2050781,.2548828-.0766602,.0771484-.1850586,.1152344-.3251953,.1152344h-1.7998047l4.9296875-7.3598633Z"/></g></svg>